<svg width="139" height="139" viewBox="0 0 139 139" xmlns="http://www.w3.org/2000/svg">
    <g fill="none" fill-rule="evenodd">
        <g transform="translate(36.982 15.303)">
            <path d="m72.445 0 .027 108.014H.066l-.06-97.541L10.278 0h62.167zM62.326 86.18c-2.563 0-4.641 2.067-4.641 4.618 0 2.55 2.078 4.617 4.641 4.617 2.564 0 4.642-2.067 4.642-4.617s-2.078-4.618-4.642-4.618zm-10.093 6.255H12.782a.964.964 0 0 0-.967.962c0 .493.373.9.854.956l.113.006h39.45c.535 0 .968-.43.968-.962a.964.964 0 0 0-.967-.962zm-.266-5.56H32.242a.964.964 0 0 0-.967.962c0 .493.373.9.854.956l.113.006h19.725c.534 0 .967-.43.967-.962a.964.964 0 0 0-.967-.962z" fill="#E0E0E0" fill-rule="nonzero"/>
            <rect fill="#FFF" x="10.278" y="21.532" width="22.24" height="2.085" rx="1.04"/>
            <rect fill="#FFF" x="10.278" y="27.787" width="50.735" height="2.085" rx="1.04"/>
            <rect fill="#FFF" x="10.278" y="34.042" width="50.735" height="2.085" rx="1.04"/>
            <rect fill="#FFF" x="10.278" y="40.297" width="50.735" height="2.085" rx="1.04"/>
            <rect fill="#FFF" x="10.278" y="46.552" width="50.735" height="2.085" rx="1.04"/>
            <path fill="#F0F0F0" d="m10.392 0 .033 10.487L0 10.457z"/>
        </g>
        <path d="M34.408 99.956v20.111m-1.934 0v-20.11" fill="#CDD0D4"/>
        <path d="M34.384 66.951s-.313 3.214-2.463 4.18a10.802 10.802 0 0 0 0 1.85h7.633v-1.725a4.884 4.884 0 0 1-2.583-4.305h-2.587z" fill="#FAC6BA"/>
        <path d="M37.114 67.47c0 1.701-3.093 1.933-3.093 1.933.181-.367.311-.758.387-1.16a8.38 8.38 0 0 0 0-1.547c.377.472.942.755 1.546.773.33.02.66-.048.955-.197a.51.51 0 0 0 .205-.19v.387z" fill="#E2A799"/>
        <path d="M31.527 61.784c-.835.333-1.52 1.95.913 2.897.51 1.825 1.844 2.808 3.255 2.94 1.412.13 3.558-.86 3.639-6.29-.352-2.362-.82-2.397-.82-2.397l-6.52-.325-.467 3.175z" fill="#FAC6BA"/>
        <path d="M32.138 63.675s-.986-.29-1.392-3.055c-.406-2.765.974-4.962 4.292-5.008 3.317-.047 4.172.943 4.338 1.531-.24 1.23-1.137 1.265-1.133 2.143-1.113-.546-4.67-.375-5.274.31-.696.796-1.121 2.594-.831 4.08z" fill="#666"/>
        <path d="M37.76 59.127s.959.317 1.288 3.315c.41-.05 1.508-3.288.162-4.696 0 0-1.13-.03-1.45 1.381z" fill="#4D4D4D"/>
        <path d="M31.674 70.64s2.022 1.23 4.064 1.23c2.084 0 4.187-1.23 4.187-1.23s5.974.554 8.128 2.584c2.154 2.03 6.395 18.177.367 18.827-4.125-.124-8.742-4.432-8.742-4.432l-11.573 3.57s-8.808 4.923-8.499-1.721c.31-6.645.372-13.78 3.573-16.182 3.202-2.402 8.495-2.645 8.495-2.645z" fill="#FAFAFA"/>
        <path d="M44.356 78.515c-.765 1.686-.56 3.933.124 5.538a4.855 4.855 0 0 0 2.587 2.46s-.267-1.16-.986-3.813c-.793-2.932-1.4-4.9-1.725-4.185zM27.12 80.24c-.588.7-1.856 4.63-1.848 6.03.004.363 2.401-1.664 2.587-2.956a5.01 5.01 0 0 0-.739-3.074z" fill="#F0F0F0"/>
        <path d="m34.497 120.84 6.538 1.254.715.68H24.745l.596-.68 6.894-1.253.24-.387V99.956h-9.087a.967.967 0 0 1 0-1.933h20.88a.967.967 0 0 1 0 1.933h-9.86v20.498l.089.387z" fill="#CCC"/>
        <path d="M25.333 122.314a.924.924 0 1 1 .015 1.849.924.924 0 0 1-.015-1.849zm8.247 0a.924.924 0 1 1 0 1.849.924.924 0 0 1 0-1.849zm8.499 0a.924.924 0 1 1 .015 1.849.924.924 0 0 1-.015-1.849z" fill="#CDD0D4"/>
        <path d="M42.14 98.023s-13.134.158-13.146 0c-1.801 0-4.93-7.24 1.941-9.17 8.874-2.495 12.892-3.23 14.531 1.72 1.64 4.951 7.501 23.306 7.501 23.306l-2.706 1.547-8.12-17.403z" fill="#5C5C5C"/>
        <path d="M33.634 98.023s2.761-4.231 5.166-4.494c-1.786 2.672-1.686 4.494-1.686 4.494h-3.48z" fill="#4D4D4D"/>
        <path d="m33.634 120.84 2.228-22.144s.255-6.37 4.678-5.539c3.816.72 1.477 6.768 1.477 6.768l-5.29 20.916h-3.093z" fill="#757575"/>
        <path d="M50.76 114.688c.429.707.8 1.448 1.11 2.216.231.742.958.7 2.304-.07 2.177-1.237 3.36-2.023 3.36-2.023s.823-1.31-1.11-.982c-1.933.329-3.569.615-3.569.615l-.371-.739-1.725.983zm-16.5 6.03c0 .515-.127 1.022-.37 1.476-.38.608-1.172 2.093.123 2.093h2.71c.855 0 .894-1.257-.247-1.721-.7-.39-.247-1.849-.247-1.849H34.26z" fill="#4D4D4D"/>
        <path d="M38.2 88.114a2.733 2.733 0 0 0 1.513-.584 4.664 4.664 0 0 1 1.198-.538l-.004-.82s-1.604-.68-4.04.101c-1.303.538-1.473 1.11-1.005 1.226-.047.163.32.41.614.368-.015.139.611.235.739.123.178.24.885.128.986.124z" fill="#F7B7B2"/>
        <path d="M35.862 84.42a1.538 1.538 0 1 1 0-3.074v.48a1.058 1.058 0 1 0 0 2.115v.48z" fill="#6E6E6E"/>
        <path d="M37.004 80.607h.43c.765 0 1.385.62 1.385 1.386v1.664c0 .766-.62 1.386-1.386 1.386h-.429c-.765 0-1.386-.62-1.386-1.386v-1.664c0-.765.62-1.386 1.386-1.386z" fill="#6E6E6E" fill-rule="nonzero"/>
        <path d="M41.368 71.337c-1.423.7.301 2.073-1.443 2.75-2.022.785-3.503 1.597-2.81 4.211a1.938 1.938 0 0 1-1.16 2.32h2.32c4.283-1.902 1-3.716 3.251-4.687 2.25-.97 4.884-.638 6.415-2.66a10.477 10.477 0 0 0-6.573-1.934z" fill="#F0F0F0"/>
        <path d="M31.86 84.463c1.04-.158 1.291.197 2.613.02.847-.175 1.141-.31 1.141-1.536a.866.866 0 0 0-.986-.97c.29-.082.592-.244.56-.45-.034-.278-.297-.374-1.024-.231a6.183 6.183 0 0 0-2.552 1.338l.248 1.83z" fill="#F7B7B2"/>
        <path d="M4.092 125.022h131.39a.617.617 0 1 1 0 1.233H4.092a.617.617 0 0 1 0-1.233z" fill="#E6E6E6" fill-rule="nonzero"/>
        <path d="M113.368 107.727c-.56-.15-1.616 1.933-2.355 4.646-.738 2.713-.885 5.034-.32 5.18.564.146 1.615-1.933 2.354-4.646.738-2.713.885-5.03.32-5.18zm-9.99-.934c.626-.142 1.798 1.849 2.621 4.447.824 2.597.982 4.819.356 4.96-.627.143-1.798-1.848-2.621-4.446-.824-2.597-.982-4.819-.356-4.96z" fill="#D9D9D9"/>
        <path d="M108.868 101.901c-1.16 0-2.107 1.284-2.107 5.653 0 4.37.947 10.172 2.107 10.172 1.167 0 2.11-5.802 2.11-10.172 0-4.37-.943-5.653-2.11-5.653z" fill="#C7C7C7"/>
        <path d="M105.411 116.612h6.318a.951.951 0 0 1 .958.941l-1.152 5.288c0 .252-.1.493-.28.67a.954.954 0 0 1-.675.276h-4.02a.958.958 0 0 1-.677-.275.946.946 0 0 1-.282-.67l-1.148-5.289a.951.951 0 0 1 .958-.941z" fill="#DBDBDB"/>
    </g>
</svg>
